<?xml version="1.0" standalone="no"?>
<!DOCTYPE svg PUBLIC "-//W3C//DTD SVG 20010904//EN"
 "http://www.w3.org/TR/2001/REC-SVG-20010904/DTD/svg10.dtd">
<svg version="1.0" xmlns="http://www.w3.org/2000/svg"
 width="500.000000pt" height="500.000000pt" viewBox="0 0 500.000000 500.000000"
 preserveAspectRatio="xMidYMid meet">
<metadata>
Created by potrace 1.14, written by Peter Selinger 2001-2017
</metadata>
<g transform="translate(0.000000,500.000000) scale(0.100000,-0.100000)"
fill="#000000" stroke="none">
<path d="M2270 4485 c-228 -28 -425 -84 -622 -177 -208 -100 -367 -210 -536
-373 -315 -302 -511 -679 -589 -1130 -23 -139 -23 -471 0 -610 74 -431 251
-783 547 -1089 258 -266 566 -445 932 -540 199 -52 271 -61 498 -61 227 0 299
9 498 61 367 95 678 276 934 542 297 310 471 656 545 1087 12 72 17 157 17
305 0 148 -5 233 -17 305 -116 674 -521 1215 -1124 1502 -333 158 -720 222
-1083 178z m879 -1096 c53 -50 61 -95 43 -239 -10 -82 -9 -88 20 -175 16 -49
32 -115 35 -145 5 -49 1 -62 -30 -122 l-35 -67 35 -12 c121 -40 181 -211 138
-392 -24 -103 -93 -245 -138 -284 -37 -32 -91 -53 -137 -53 -47 1 -175 28
-231 49 -31 12 -85 39 -120 60 -35 21 -65 38 -67 36 -1 -1 5 -30 14 -63 16
-59 13 -112 -6 -112 -19 0 -69 92 -80 145 -6 29 -20 61 -30 70 -11 10 -20 16
-20 14 0 -2 7 -36 15 -74 18 -85 19 -213 3 -267 -6 -22 -24 -54 -40 -70 -26
-28 -33 -30 -77 -26 -92 9 -217 91 -361 238 -127 129 -187 240 -177 330 2 25
8 52 11 61 6 13 -1 18 -29 23 -50 10 -108 70 -170 176 -80 139 -141 226 -232
328 -165 188 -186 272 -65 260 166 -18 467 -226 831 -573 61 -58 115 -104 120
-101 16 10 -68 266 -123 374 -34 67 -25 67 18 0 43 -69 80 -164 108 -277 12
-50 27 -90 32 -88 6 2 16 52 22 111 16 142 39 241 70 296 14 25 22 36 19 25
-49 -150 -86 -391 -66 -428 7 -13 11 -29 9 -36 -2 -8 2 -15 7 -17 6 -2 21 42
34 99 56 247 176 531 282 670 87 114 205 233 260 260 53 27 76 26 108 -4z"/>
</g>
</svg>
